<svg width="618" height="448" fill="none" xmlns="http://www.w3.org/2000/svg"><path d="M585.143 330.105L257.482 146.661V9.042L16.725 1C14.865 3.66 2.953 11.325 4.812 15.598c2.238 5.11 13.495 3.476 16.766 6.764 3.822 3.875-2.754 19.625-4.716 24.169-3.753 8.608-12.326 15.581-14.805 24.19-4.166 14.45 4.27 13.299 20.244 22.325 26.924 15.226 5.337 31.018 12.12 48.903 5.508 14.577 29.574 22.095 38.388 36.672 6.817 11.226 16.181 14.094 30.711 22.305-.345-4.985-7.678-19.687 6.094-18.389 13.668 1.278 8.4 13.55 11.017 18.682 2.203 4.272 17.799 12.817 4.854 16.755-4.303 1.298-16.56-3.875-21.483-5.257 3.477 6.597 1.273 13.445 6.782 19.749 6.576 7.519 13.669 4.629 22.379 8.713 8.986 4.209 8.022 9.047 4.028 15.414-4.166 6.639-8.469 5.613-1.859 13.614 4.786 5.78 12.911 13.11 19.9 17.508 4.063 2.555 8.469 3.142 12.532 6.409 3.374 2.722 2.066 6.283 6.094 8.733 6.886 4.21 18.558 4.272 23.998 9.78 6.059 6.137-.827 10.765 17.008 10.2.929 12.273 4.751 23.393 4.544 35.666 9.95 2.408 26.028-.461 36.46-1.738 10.363 8.502 23.756 2.597 35.6 7.225 5.164 2.011 4.097 7.037 7.23 8.796 6.438 3.603 11.189 1.341 19.177 2.597 5.922.922 10.501 3.561 16.147 4.524 5.336.901 14.116-1.215 18.075 1.655 4.751 3.434-3.202 9.717 3.959 12.482 5.957 2.304 14.495-3.184 20.279-2.388 6.748.943 26.097 11.687 30.848 15.226 5.406 4.042 10.846 11.582 13.91 16.775 4.785 8.126 4.131 12.106 14.012 18.054 6.3 3.79.31 4.063 10.569 5.173 6.714.733 15.596-2.22 22.379-2.681 14.116-.943 28.37.691 42.279-.922 12.946-1.508 25.305-3.979 38.595-5.131 11.499-1.005 31.744-.23 41.934-3.56 11.052-3.581 12.05-11.687-3.925-10.178-1.274-5.173 4.407-12.315-1.928-15.896 8.814-7.33 12.016-12.503 13.393-21.467.619-3.937.895-8.294 4.097-11.603 3.133-3.267 11.947-5.215 13.668-8.021 2.651-4.356-1.584-6.304-4.82-8.734-2.066-1.57-7.953-.816-9.64-2.199-3.133-2.534-.035-5.152-1.756-7.707-5.027-7.393-11.018-10.304-14.805-18.681.103 1.403.207 2.827.069 4.209" stroke="#fff" stroke-width="2" stroke-linecap="round" stroke-linejoin="round" opacity=".298"/><path d="M423.334 302.073c-4.97 8.243 6.67 11.136 15.986 16.524 2.761 1.597 3.024 4.234.118 5.83-6.248 3.431-29.939-1.561-28.436 2.962 1.552 4.671 21.581 11.207 22.484 11.654 7.928 3.925 10.509 13.882 6.143 19.342-3.106 3.884-23.703 2.575-30.183 1.281-42.428-8.471-23.31-7.461-70.97-10.091-3.649-.202-7.472-.305-10.976.345-3.61.67-3.495 3.416-2.284 4.901 4.013 4.92 21.979 13.266 17.144 19.734-1.483 1.985-4.96 3.238-6.525 5.199-1.226 1.537-1.09 3.351-1.635 5.026" stroke="#fff" stroke-width="2"/><path fill-rule="evenodd" clip-rule="evenodd" d="M333.072 387.416c2.082 0 3.77-1.026 3.77-2.292 0-1.266-1.688-2.292-3.77-2.292-2.083 0-3.771 1.026-3.771 2.292 0 1.266 1.688 2.292 3.771 2.292zm50.753 13.045c.961 0 1.74-.474 1.74-1.058 0-.584-.779-1.058-1.74-1.058s-1.74.474-1.74 1.058c0 .584.779 1.058 1.74 1.058zm37.122 38.077c.961 0 1.74-.473 1.74-1.057 0-.585-.779-1.058-1.74-1.058s-1.74.473-1.74 1.058c0 .584.779 1.057 1.74 1.057zm-208.813-85.674c.961 0 1.74-.474 1.74-1.058 0-.584-.779-1.057-1.74-1.057s-1.74.473-1.74 1.057.779 1.058 1.74 1.058zm211.423-48.302c2.083 0 3.771-1.026 3.771-2.292 0-1.265-1.688-2.291-3.771-2.291-2.082 0-3.77 1.026-3.77 2.291 0 1.266 1.688 2.292 3.77 2.292z" fill="#4AF6CD"/><path d="M244.364 384.693l-2.24 11.024h-1.952l-2.032-9.232-2.048 9.232h-1.904l-2.24-11.024h1.488l1.776 9.696 2.128-9.696h1.616l2.176 9.696 1.84-9.696h1.392zm8.134 6.56c0 .245-.01.496-.032.752h-5.376c.064.928.299 1.611.704 2.048.406.437.928.656 1.568.656a3.43 3.43 0 001.12-.176 4.486 4.486 0 001.072-.56l.64.88c-.896.704-1.877 1.056-2.944 1.056-1.173 0-2.09-.384-2.752-1.152-.65-.768-.976-1.824-.976-3.168 0-.875.139-1.648.416-2.32.288-.683.694-1.216 1.216-1.6.534-.384 1.158-.576 1.872-.576 1.12 0 1.979.368 2.576 1.104.598.736.896 1.755.896 3.056zm-1.456-.432c0-.832-.165-1.467-.496-1.904-.33-.437-.826-.656-1.488-.656-1.205 0-1.861.885-1.968 2.656h3.952v-.096zm6.095-3.728c.576 0 1.093.08 1.552.24.459.16.896.4 1.312.72l-.624.928a5.02 5.02 0 00-1.104-.544 3.331 3.331 0 00-1.088-.176c-.48 0-.859.101-1.136.304a.92.92 0 00-.416.8c0 .341.128.608.384.8.267.192.741.379 1.424.56.939.235 1.637.555 2.096.96.469.405.704.96.704 1.664 0 .832-.325 1.467-.976 1.904-.64.437-1.424.656-2.352.656-1.28 0-2.341-.368-3.184-1.104l.784-.896c.715.544 1.504.816 2.368.816.555 0 .992-.112 1.312-.336a1.1 1.1 0 00.496-.944c0-.288-.059-.517-.176-.688-.117-.181-.32-.336-.608-.464-.288-.139-.709-.283-1.264-.432-.896-.235-1.547-.549-1.952-.944-.395-.395-.592-.896-.592-1.504 0-.437.128-.832.384-1.184.267-.363.629-.64 1.088-.832a3.909 3.909 0 011.568-.304zm9.437 8.24a3.238 3.238 0 01-1.888.576c-.715 0-1.275-.203-1.68-.608-.395-.416-.592-1.013-.592-1.792v-5.088h-1.472v-1.136h1.472v-1.904l1.472-.176v2.08h2l-.16 1.136h-1.84v5.024c0 .437.074.757.224.96.16.192.421.288.784.288.33 0 .704-.112 1.12-.336l.56.976zm8.559-10.832c.736 0 1.366.107 1.888.32.523.203 1.03.523 1.52.96l-.832.928a4.48 4.48 0 00-1.232-.72 3.37 3.37 0 00-1.28-.24c-.576 0-1.05.133-1.424.4-.373.267-.56.656-.56 1.168 0 .32.064.592.192.816.128.213.363.411.704.592.352.181.859.373 1.52.576.694.213 1.27.443 1.728.688.459.245.827.587 1.104 1.024.288.427.432.971.432 1.632 0 .64-.16 1.205-.48 1.696-.309.491-.762.875-1.36 1.152-.586.277-1.285.416-2.096.416-1.525 0-2.773-.475-3.744-1.424l.832-.928c.448.363.902.64 1.36.832.459.181.971.272 1.536.272.683 0 1.248-.165 1.696-.496.448-.341.672-.832.672-1.472 0-.363-.069-.661-.208-.896-.138-.245-.378-.464-.72-.656-.33-.192-.816-.384-1.456-.576-1.13-.341-1.957-.752-2.48-1.232-.522-.48-.784-1.131-.784-1.952 0-.555.144-1.051.432-1.488a3 3 0 011.232-1.024c.534-.245 1.136-.368 1.808-.368zm9.887 2.592c.768 0 1.365.229 1.792.688.437.459.656 1.088.656 1.888v6.048h-1.472v-5.84c0-.597-.117-1.019-.352-1.264-.224-.245-.555-.368-.992-.368-.437 0-.827.128-1.168.384-.341.256-.661.619-.96 1.088v6h-1.472v-11.808l1.472-.16v4.704c.661-.907 1.493-1.36 2.496-1.36zm8.575 0c1.184 0 2.101.395 2.752 1.184.661.789.992 1.861.992 3.216 0 .875-.149 1.648-.448 2.32-.299.661-.731 1.179-1.296 1.552-.565.363-1.237.544-2.016.544-1.184 0-2.107-.395-2.768-1.184-.661-.789-.992-1.861-.992-3.216 0-.875.149-1.643.448-2.304.299-.672.731-1.189 1.296-1.552.565-.373 1.243-.56 2.032-.56zm0 1.184c-1.461 0-2.192 1.077-2.192 3.232 0 2.144.725 3.216 2.176 3.216s2.176-1.077 2.176-3.232c0-2.144-.72-3.216-2.16-3.216zm9.84-1.184c.299 0 .576.032.832.096l-.272 1.44a3.032 3.032 0 00-.736-.096c-.523 0-.944.192-1.264.576-.32.384-.571.981-.752 1.792v4.816h-1.472v-8.432h1.264l.144 1.712c.224-.629.528-1.104.912-1.424.384-.32.832-.48 1.344-.48zm8.391 4.16c0 .245-.01.496-.032.752h-5.376c.064.928.299 1.611.704 2.048.406.437.928.656 1.568.656a3.43 3.43 0 001.12-.176 4.486 4.486 0 001.072-.56l.64.88c-.896.704-1.877 1.056-2.944 1.056-1.173 0-2.09-.384-2.752-1.152-.65-.768-.976-1.824-.976-3.168 0-.875.139-1.648.416-2.32.288-.683.694-1.216 1.216-1.6.534-.384 1.158-.576 1.872-.576 1.12 0 1.979.368 2.576 1.104.598.736.896 1.755.896 3.056zm-1.456-.432c0-.832-.165-1.467-.496-1.904-.33-.437-.826-.656-1.488-.656-1.205 0-1.861.885-1.968 2.656h3.952v-.096zm9.994-7.92v14.384h-.352v-14.384h.352zm-60.626 31.816h-1.472l-.384-4.976c-.16-1.952-.251-3.451-.272-4.496l-2.384 8.224h-1.424l-2.512-8.24c0 1.333-.069 2.875-.208 4.624l-.368 4.864h-1.44l.912-11.024h2.048l2.32 8.016 2.208-8.016h2.064l.912 11.024zm8.197-1.968c0 .341.059.597.176.768a1.1 1.1 0 00.528.368l-.336 1.024c-.437-.053-.789-.176-1.056-.368-.266-.192-.464-.491-.592-.896-.565.843-1.402 1.264-2.512 1.264-.832 0-1.488-.235-1.968-.704s-.72-1.083-.72-1.84c0-.896.32-1.584.96-2.064.651-.48 1.568-.72 2.752-.72h1.296v-.624c0-.597-.144-1.024-.432-1.28-.288-.256-.73-.384-1.328-.384-.618 0-1.376.149-2.272.448l-.368-1.072c1.046-.384 2.016-.576 2.912-.576.992 0 1.734.245 2.224.736.491.48.736 1.168.736 2.064v3.856zm-3.456 1.056c.843 0 1.504-.437 1.984-1.312v-1.936h-1.104c-1.557 0-2.336.576-2.336 1.728 0 .501.123.88.368 1.136.246.256.608.384 1.088.384zm8.003 1.104c-.544 0-.976-.16-1.296-.48-.309-.331-.464-.789-.464-1.376v-10.16l1.472-.176v10.304c0 .235.037.405.112.512.085.107.224.16.416.16.203 0 .384-.032.544-.096l.384 1.024a2.398 2.398 0 01-1.168.288zm4.48-8.624v8.432h-1.472v-8.432h1.472zm-.752-4.048c.309 0 .56.096.752.288a.977.977 0 01.288.72.977.977 0 01-.288.72c-.192.181-.443.272-.752.272-.299 0-.544-.091-.736-.272a.977.977 0 01-.288-.72c0-.288.096-.528.288-.72a.996.996 0 01.736-.288zm7.651 3.856c.96 0 1.723.389 2.288 1.168.566.768.848 1.845.848 3.232 0 .875-.133 1.648-.4 2.32-.266.661-.65 1.179-1.152 1.552-.501.363-1.088.544-1.76.544-.885 0-1.632-.373-2.24-1.12l-.144.928h-1.296v-11.824l1.472-.176v4.624c.608-.832 1.403-1.248 2.384-1.248zm-.528 7.648c.651 0 1.158-.261 1.52-.784.374-.533.56-1.355.56-2.464 0-1.141-.17-1.963-.512-2.464-.341-.512-.826-.768-1.456-.768-.746 0-1.402.437-1.968 1.312v4.032c.224.352.496.629.816.832a1.96 1.96 0 001.04.304zm12.444.976h-1.264l-.112-1.312c-.32.523-.688.907-1.104 1.152-.416.235-.922.352-1.52.352-.736 0-1.312-.224-1.728-.672-.416-.448-.624-1.083-.624-1.904v-6.048h1.472v5.888c0 .576.102.987.304 1.232.203.235.534.352.992.352.822 0 1.526-.485 2.112-1.456v-6.016h1.472v8.432zm3.425-2.032c.32 0 .586.107.8.32.213.213.32.475.32.784 0 .331-.096.709-.288 1.136l-1.072 2.448h-1.056l.64-2.656a1.22 1.22 0 01-.336-.4 1.228 1.228 0 01-.112-.528c0-.309.106-.571.32-.784.213-.213.474-.32.784-.32zm11.63-9.184c.661 0 1.216.085 1.664.256.459.171.923.448 1.392.832l-.832.976c-.672-.544-1.381-.816-2.128-.816-.917 0-1.659.352-2.224 1.056-.555.704-.832 1.835-.832 3.392 0 1.515.277 2.635.832 3.36.555.715 1.291 1.072 2.208 1.072.469 0 .88-.08 1.232-.24.352-.16.725-.384 1.12-.672l.752.96c-.341.352-.779.645-1.312.88s-1.147.352-1.84.352c-.896 0-1.696-.219-2.4-.656-.693-.448-1.237-1.099-1.632-1.952-.384-.864-.576-1.899-.576-3.104s.203-2.235.608-3.088c.405-.864.955-1.515 1.648-1.952a4.262 4.262 0 012.32-.656zm10.969 11.216l-.832-2.768h-4.176l-.832 2.768h-1.536l3.536-11.024h1.92l3.52 11.024h-1.6zm-4.64-4h3.44l-1.712-5.76-1.728 5.76zm48.547-109.07c.662 0 1.216.086 1.664.256.459.171.923.448 1.392.832l-.832.976c-.672-.544-1.381-.816-2.128-.816-.917 0-1.658.352-2.224 1.056-.554.704-.832 1.835-.832 3.392 0 1.515.278 2.635.832 3.36.555.715 1.291 1.072 2.208 1.072.47 0 .88-.08 1.232-.24.352-.16.726-.384 1.12-.672l.752.96c-.341.352-.778.646-1.312.88-.533.235-1.146.352-1.84.352-.896 0-1.696-.218-2.4-.656-.693-.448-1.237-1.098-1.632-1.952-.384-.864-.576-1.898-.576-3.104 0-1.205.203-2.234.608-3.088.406-.864.955-1.514 1.648-1.952a4.264 4.264 0 012.32-.656zm11.024 11.216h-1.264l-.112-1.312c-.32.523-.688.907-1.104 1.152-.416.235-.923.352-1.52.352-.736 0-1.312-.224-1.728-.672-.416-.448-.624-1.082-.624-1.904v-6.048h1.472v5.888c0 .576.101.987.304 1.232.203.235.533.352.992.352.821 0 1.525-.485 2.112-1.456v-6.016h1.472v8.432zm6.704-8.624c.299 0 .576.032.832.096l-.272 1.44a3.032 3.032 0 00-.736-.096c-.522 0-.944.192-1.264.576-.32.384-.57.982-.752 1.792v4.816h-1.472v-8.432h1.264l.144 1.712c.224-.629.528-1.104.912-1.424.384-.32.832-.48 1.344-.48zm6.172 0c.299 0 .576.032.832.096l-.272 1.44a3.032 3.032 0 00-.736-.096c-.522 0-.944.192-1.264.576-.32.384-.57.982-.752 1.792v4.816h-1.472v-8.432h1.264l.144 1.712c.224-.629.528-1.104.912-1.424.384-.32.832-.48 1.344-.48zm8.392 4.16c0 .246-.011.496-.032.752h-5.376c.064.928.298 1.611.704 2.048.405.438.928.656 1.568.656.405 0 .778-.058 1.12-.176a4.523 4.523 0 001.072-.56l.64.88c-.896.704-1.878 1.056-2.944 1.056-1.174 0-2.091-.384-2.752-1.152-.651-.768-.976-1.824-.976-3.168 0-.874.138-1.648.416-2.32.288-.682.693-1.216 1.216-1.6.533-.384 1.157-.576 1.872-.576 1.12 0 1.978.368 2.576 1.104.597.736.896 1.755.896 3.056zm-1.456-.432c0-.832-.166-1.466-.496-1.904-.331-.437-.827-.656-1.488-.656-1.206 0-1.862.886-1.968 2.656h3.952v-.096zm7.775-3.728c.768 0 1.365.23 1.792.688.437.459.656 1.088.656 1.888v6.048h-1.472v-5.84c0-.597-.112-1.018-.336-1.264-.224-.245-.555-.368-.992-.368a1.92 1.92 0 00-1.184.384c-.342.256-.662.624-.96 1.104v5.984h-1.472v-8.432h1.264l.128 1.248c.298-.448.666-.8 1.104-1.056a2.914 2.914 0 011.472-.384zm9.663 8.24a3.238 3.238 0 01-1.888.576c-.715 0-1.275-.202-1.68-.608-.395-.416-.592-1.013-.592-1.792v-5.088h-1.472v-1.136h1.472v-1.904l1.472-.176v2.08h2l-.16 1.136h-1.84v5.024c0 .438.074.758.224.96.16.192.421.288.784.288.33 0 .704-.112 1.12-.336l.56.976zm-58.985 8.36v9.696h4.528l-.176 1.328h-5.872v-11.024h1.52zm9.131 2.4c1.184 0 2.101.395 2.752 1.184.661.79.992 1.862.992 3.216 0 .875-.149 1.648-.448 2.32-.299.662-.731 1.179-1.296 1.552-.565.363-1.237.544-2.016.544-1.184 0-2.107-.394-2.768-1.184-.661-.789-.992-1.861-.992-3.216 0-.874.149-1.642.448-2.304.299-.672.731-1.189 1.296-1.552.565-.373 1.243-.56 2.032-.56zm0 1.184c-1.461 0-2.192 1.078-2.192 3.232 0 2.144.725 3.216 2.176 3.216s2.176-1.077 2.176-3.232c0-2.144-.72-3.216-2.16-3.216zm9.248-1.184c.501 0 .96.075 1.376.224.416.139.816.368 1.2.688l-.704.928a3.365 3.365 0 00-.88-.464 2.585 2.585 0 00-.928-.16c-.683 0-1.216.272-1.6.816-.374.544-.56 1.35-.56 2.416 0 1.067.186 1.856.56 2.368.373.502.906.752 1.6.752.33 0 .634-.048.912-.144.277-.106.586-.272.928-.496l.672.96c-.768.619-1.627.928-2.576.928-1.142 0-2.043-.384-2.704-1.152-.651-.768-.976-1.829-.976-3.184 0-.896.149-1.68.448-2.352.298-.672.72-1.194 1.264-1.568.554-.373 1.21-.56 1.968-.56zm10.092 6.656c0 .342.059.598.176.768.117.16.293.283.528.368l-.336 1.024c-.437-.053-.789-.176-1.056-.368s-.464-.49-.592-.896c-.565.843-1.403 1.264-2.512 1.264-.832 0-1.488-.234-1.968-.704-.48-.469-.72-1.082-.72-1.84 0-.896.32-1.584.96-2.064.651-.48 1.568-.72 2.752-.72h1.296v-.624c0-.597-.144-1.024-.432-1.28-.288-.256-.731-.384-1.328-.384-.619 0-1.376.15-2.272.448l-.368-1.072c1.045-.384 2.016-.576 2.912-.576.992 0 1.733.246 2.224.736.491.48.736 1.168.736 2.064v3.856zm-3.456 1.056c.843 0 1.504-.437 1.984-1.312v-1.936h-1.104c-1.557 0-2.336.576-2.336 1.728 0 .502.123.88.368 1.136.245.256.608.384 1.088.384zm10.735.528a3.236 3.236 0 01-1.888.576c-.714 0-1.274-.202-1.68-.608-.394-.416-.592-1.013-.592-1.792v-5.088h-1.472v-1.136h1.472v-1.904l1.472-.176v2.08h2l-.16 1.136h-1.84v5.024c0 .438.075.758.224.96.16.192.422.288.784.288.331 0 .704-.112 1.12-.336l.56.976zm2.997-8.048v8.432h-1.472v-8.432h1.472zm-.752-4.048c.31 0 .56.096.752.288a.977.977 0 01.288.72.977.977 0 01-.288.72c-.192.182-.442.272-.752.272-.298 0-.544-.09-.736-.272a.977.977 0 01-.288-.72c0-.288.096-.528.288-.72a.998.998 0 01.736-.288zm6.964 3.856c1.184 0 2.101.395 2.752 1.184.661.79.992 1.862.992 3.216 0 .875-.149 1.648-.448 2.32-.299.662-.731 1.179-1.296 1.552-.565.363-1.237.544-2.016.544-1.184 0-2.107-.394-2.768-1.184-.661-.789-.992-1.861-.992-3.216 0-.874.149-1.642.448-2.304.299-.672.731-1.189 1.296-1.552.565-.373 1.243-.56 2.032-.56zm0 1.184c-1.461 0-2.192 1.078-2.192 3.232 0 2.144.725 3.216 2.176 3.216s2.176-1.077 2.176-3.232c0-2.144-.72-3.216-2.16-3.216zm10.144-1.184c.768 0 1.365.23 1.792.688.437.459.656 1.088.656 1.888v6.048h-1.472v-5.84c0-.597-.112-1.018-.336-1.264-.224-.245-.555-.368-.992-.368a1.92 1.92 0 00-1.184.384c-.342.256-.662.624-.96 1.104v5.984h-1.472v-8.432h1.264l.128 1.248c.298-.448.666-.8 1.104-1.056a2.914 2.914 0 011.472-.384z" fill="#fff"/></svg>